# xmcd
#
# Track frame offsets: 
#        150
#        17344
#        29399
#        36345
#        45570
#        60123
#        71521
#        78532
#        87317
#        105914
#        116260
#        132169
#
# Disc length: 2176 seconds
#
# Revision: 1
# Processed by: cddbd v1.5.2PL0 Copyright (c) Steve Scherf et al.
# Submitted via: ExactAudioCopy v1.0b3
#
DISCID=87087e0c
DTITLE=Brakes - Touchdown
DYEAR=2009
DGENRE=Indie
TTITLE0=Two Shocks
TTITLE1=Don't Take Me To Space (Man)
TTITLE2=Red Rag
TTITLE3=Worry About It Later
TTITLE4=Crush On You
TTITLE5=Eternal Return
TTITLE6=Do You Feel The Same
TTITLE7=Ancient Mysteries
TTITLE8=Oh! Forever
TTITLE9=Hey Hey
TTITLE10=Why Tell The Truth (When It's Easier To Lie)
TTITLE11=Leaving England
EXTD=
EXTT0=
EXTT1=
EXTT2=
EXTT3=
EXTT4=
EXTT5=
EXTT6=
EXTT7=
EXTT8=
EXTT9=
EXTT10=
EXTT11=
PLAYORDER=
